<?xml version="1.0"?>
<svg width="512" height="192" xmlns="http://www.w3.org/2000/svg">
<g transform="translate(16,16)">
<g>
<rect x="0" y="0" width="32" height="32" rx="4" ry="4" fill="white" stroke="black" stroke-width="1" />
<text x="16" y="20" font-size="8" text-anchor="middle" fill="black">QK_GESC</text>
</g>
<g>
<rect x="32" y="0" width="32" height="32" rx="4" ry="4" fill="white" stroke="black" stroke-width="1" />
<text x="48" y="13" font-size="8" text-anchor="middle" fill="black">!</text>
<text x="48" y="26" font-size="8" text-anchor="middle" fill="black">1</text>
</g>
<g>
<rect x="64" y="0" width="32" height="32" rx="4" ry="4" fill="white" stroke="black" stroke-width="1" />
<text x="80" y="13" font-size="8" text-anchor="middle" fill="black">@</text>
<text x="80" y="26" font-size="8" text-anchor="middle" fill="black">2</text>
</g>
<g>
<rect x="96" y="0" width="32" height="32" rx="4" ry="4" fill="white" stroke="black" stroke-width="1" />
<text x="112" y="13" font-size="8" text-anchor="middle" fill="black">#</text>
<text x="112" y="26" font-size="8" text-anchor="middle" fill="black">3</text>
</g>
<g>
<rect x="128" y="0" width="32" height="32" rx="4" ry="4" fill="white" stroke="black" stroke-width="1" />
<text x="144" y="13" font-size="8" text-anchor="middle" fill="black">$</text>
<text x="144" y="26" font-size="8" text-anchor="middle" fill="black">4</text>
</g>
<g>
<rect x="160" y="0" width="32" height="32" rx="4" ry="4" fill="white" stroke="black" stroke-width="1" />
<text x="176" y="13" font-size="8" text-anchor="middle" fill="black">%</text>
<text x="176" y="26" font-size="8" text-anchor="middle" fill="black">5</text>
</g>
<g>
<rect x="192" y="0" width="32" height="32" rx="4" ry="4" fill="white" stroke="black" stroke-width="1" />
<text x="208" y="13" font-size="8" text-anchor="middle" fill="black">^</text>
<text x="208" y="26" font-size="8" text-anchor="middle" fill="black">6</text>
</g>
<g>
<rect x="224" y="0" width="32" height="32" rx="4" ry="4" fill="white" stroke="black" stroke-width="1" />
<text x="240" y="13" font-size="8" text-anchor="middle" fill="black">&amp;</text>
<text x="240" y="26" font-size="8" text-anchor="middle" fill="black">7</text>
</g>
<g>
<rect x="256" y="0" width="32" height="32" rx="4" ry="4" fill="white" stroke="black" stroke-width="1" />
<text x="272" y="13" font-size="8" text-anchor="middle" fill="black">*</text>
<text x="272" y="26" font-size="8" text-anchor="middle" fill="black">8</text>
</g>
<g>
<rect x="288" y="0" width="32" height="32" rx="4" ry="4" fill="white" stroke="black" stroke-width="1" />
<text x="304" y="13" font-size="8" text-anchor="middle" fill="black">(</text>
<text x="304" y="26" font-size="8" text-anchor="middle" fill="black">9</text>
</g>
<g>
<rect x="320" y="0" width="32" height="32" rx="4" ry="4" fill="white" stroke="black" stroke-width="1" />
<text x="336" y="13" font-size="8" text-anchor="middle" fill="black">)</text>
<text x="336" y="26" font-size="8" text-anchor="middle" fill="black">0</text>
</g>
<g>
<rect x="352" y="0" width="32" height="32" rx="4" ry="4" fill="white" stroke="black" stroke-width="1" />
<text x="368" y="13" font-size="8" text-anchor="middle" fill="black">_</text>
<text x="368" y="26" font-size="8" text-anchor="middle" fill="black">-</text>
</g>
<g>
<rect x="384" y="0" width="32" height="32" rx="4" ry="4" fill="white" stroke="black" stroke-width="1" />
<text x="400" y="13" font-size="8" text-anchor="middle" fill="black">+</text>
<text x="400" y="26" font-size="8" text-anchor="middle" fill="black">=</text>
</g>
<g>
<rect x="0" y="32" width="48" height="32" rx="4" ry="4" fill="white" stroke="black" stroke-width="1" />
<text x="24" y="52" font-size="8" text-anchor="middle" fill="black">Tab</text>
</g>
<g>
<rect x="48" y="32" width="32" height="32" rx="4" ry="4" fill="white" stroke="black" stroke-width="1" />
<text x="64" y="52" font-size="8" text-anchor="middle" fill="black">Q</text>
</g>
<g>
<rect x="80" y="32" width="32" height="32" rx="4" ry="4" fill="white" stroke="black" stroke-width="1" />
<text x="96" y="52" font-size="8" text-anchor="middle" fill="black">W</text>
</g>
<g>
<rect x="112" y="32" width="32" height="32" rx="4" ry="4" fill="white" stroke="black" stroke-width="1" />
<text x="128" y="52" font-size="8" text-anchor="middle" fill="black">E</text>
</g>
<g>
<rect x="144" y="32" width="32" height="32" rx="4" ry="4" fill="white" stroke="black" stroke-width="1" />
<text x="160" y="52" font-size="8" text-anchor="middle" fill="black">R</text>
</g>
<g>
<rect x="176" y="32" width="32" height="32" rx="4" ry="4" fill="white" stroke="black" stroke-width="1" />
<text x="192" y="52" font-size="8" text-anchor="middle" fill="black">T</text>
</g>
<g>
<rect x="208" y="32" width="32" height="32" rx="4" ry="4" fill="white" stroke="black" stroke-width="1" />
<text x="224" y="52" font-size="8" text-anchor="middle" fill="black">Y</text>
</g>
<g>
<rect x="240" y="32" width="32" height="32" rx="4" ry="4" fill="white" stroke="black" stroke-width="1" />
<text x="256" y="52" font-size="8" text-anchor="middle" fill="black">U</text>
</g>
<g>
<rect x="272" y="32" width="32" height="32" rx="4" ry="4" fill="white" stroke="black" stroke-width="1" />
<text x="288" y="52" font-size="8" text-anchor="middle" fill="black">I</text>
</g>
<g>
<rect x="304" y="32" width="32" height="32" rx="4" ry="4" fill="white" stroke="black" stroke-width="1" />
<text x="320" y="52" font-size="8" text-anchor="middle" fill="black">O</text>
</g>
<g>
<rect x="336" y="32" width="32" height="32" rx="4" ry="4" fill="white" stroke="black" stroke-width="1" />
<text x="352" y="52" font-size="8" text-anchor="middle" fill="black">P</text>
</g>
<g>
<rect x="368" y="32" width="32" height="32" rx="4" ry="4" fill="white" stroke="black" stroke-width="1" />
<text x="384" y="45" font-size="8" text-anchor="middle" fill="black">{</text>
<text x="384" y="58" font-size="8" text-anchor="middle" fill="black">[</text>
</g>
<g>
<rect x="400" y="32" width="32" height="32" rx="4" ry="4" fill="white" stroke="black" stroke-width="1" />
<text x="416" y="45" font-size="8" text-anchor="middle" fill="black">}</text>
<text x="416" y="58" font-size="8" text-anchor="middle" fill="black">]</text>
</g>
<g>
<rect x="0" y="64" width="56" height="32" rx="4" ry="4" fill="white" stroke="black" stroke-width="1" />
<text x="28" y="84" font-size="8" text-anchor="middle" fill="black">CAPS</text>
</g>
<g>
<rect x="56" y="64" width="32" height="32" rx="4" ry="4" fill="white" stroke="black" stroke-width="1" />
<text x="72" y="84" font-size="8" text-anchor="middle" fill="black">A</text>
</g>
<g>
<rect x="88" y="64" width="32" height="32" rx="4" ry="4" fill="white" stroke="black" stroke-width="1" />
<text x="104" y="84" font-size="8" text-anchor="middle" fill="black">S</text>
</g>
<g>
<rect x="120" y="64" width="32" height="32" rx="4" ry="4" fill="white" stroke="black" stroke-width="1" />
<text x="136" y="84" font-size="8" text-anchor="middle" fill="black">D</text>
</g>
<g>
<rect x="152" y="64" width="32" height="32" rx="4" ry="4" fill="white" stroke="black" stroke-width="1" />
<text x="168" y="84" font-size="8" text-anchor="middle" fill="black">F</text>
</g>
<g>
<rect x="184" y="64" width="32" height="32" rx="4" ry="4" fill="white" stroke="black" stroke-width="1" />
<text x="200" y="84" font-size="8" text-anchor="middle" fill="black">G</text>
</g>
<g>
<rect x="216" y="64" width="32" height="32" rx="4" ry="4" fill="white" stroke="black" stroke-width="1" />
<text x="232" y="84" font-size="8" text-anchor="middle" fill="black">H</text>
</g>
<g>
<rect x="248" y="64" width="32" height="32" rx="4" ry="4" fill="white" stroke="black" stroke-width="1" />
<text x="264" y="84" font-size="8" text-anchor="middle" fill="black">J</text>
</g>
<g>
<rect x="280" y="64" width="32" height="32" rx="4" ry="4" fill="white" stroke="black" stroke-width="1" />
<text x="296" y="84" font-size="8" text-anchor="middle" fill="black">K</text>
</g>
<g>
<rect x="312" y="64" width="32" height="32" rx="4" ry="4" fill="white" stroke="black" stroke-width="1" />
<text x="328" y="84" font-size="8" text-anchor="middle" fill="black">L</text>
</g>
<g>
<rect x="344" y="64" width="32" height="32" rx="4" ry="4" fill="white" stroke="black" stroke-width="1" />
<text x="360" y="77" font-size="8" text-anchor="middle" fill="black">:</text>
<text x="360" y="90" font-size="8" text-anchor="middle" fill="black">;</text>
</g>
<g>
<rect x="376" y="64" width="32" height="32" rx="4" ry="4" fill="white" stroke="black" stroke-width="1" />
<text x="392" y="77" font-size="8" text-anchor="middle" fill="black">&quot;</text>
<text x="392" y="90" font-size="8" text-anchor="middle" fill="black">&#039;</text>
</g>
<g>
<rect x="416" y="0" width="64" height="32" rx="4" ry="4" fill="white" stroke="black" stroke-width="1" />
<text x="448" y="20" font-size="8" text-anchor="middle" fill="black">Bksp</text>
</g>
<g>
<rect x="432" y="32" width="48" height="32" rx="4" ry="4" fill="white" stroke="black" stroke-width="1" />
<text x="456" y="45" font-size="8" text-anchor="middle" fill="black">|</text>
<text x="456" y="58" font-size="8" text-anchor="middle" fill="black">\</text>
</g>
<g>
<rect x="408" y="64" width="72" height="32" rx="4" ry="4" fill="white" stroke="black" stroke-width="1" />
<text x="444" y="84" font-size="8" text-anchor="middle" fill="black">Enter</text>
</g>
<g>
<rect x="0" y="96" width="72" height="32" rx="4" ry="4" fill="white" stroke="black" stroke-width="1" />
<text x="36" y="116" font-size="8" text-anchor="middle" fill="black">LShft</text>
</g>
<g>
<rect x="72" y="96" width="32" height="32" rx="4" ry="4" fill="white" stroke="black" stroke-width="1" />
<text x="88" y="116" font-size="8" text-anchor="middle" fill="black">Z</text>
</g>
<g>
<rect x="104" y="96" width="32" height="32" rx="4" ry="4" fill="white" stroke="black" stroke-width="1" />
<text x="120" y="116" font-size="8" text-anchor="middle" fill="black">X</text>
</g>
<g>
<rect x="136" y="96" width="32" height="32" rx="4" ry="4" fill="white" stroke="black" stroke-width="1" />
<text x="152" y="116" font-size="8" text-anchor="middle" fill="black">C</text>
</g>
<g>
<rect x="168" y="96" width="32" height="32" rx="4" ry="4" fill="white" stroke="black" stroke-width="1" />
<text x="184" y="116" font-size="8" text-anchor="middle" fill="black">V</text>
</g>
<g>
<rect x="200" y="96" width="32" height="32" rx="4" ry="4" fill="white" stroke="black" stroke-width="1" />
<text x="216" y="116" font-size="8" text-anchor="middle" fill="black">B</text>
</g>
<g>
<rect x="232" y="96" width="32" height="32" rx="4" ry="4" fill="white" stroke="black" stroke-width="1" />
<text x="248" y="116" font-size="8" text-anchor="middle" fill="black">N</text>
</g>
<g>
<rect x="264" y="96" width="32" height="32" rx="4" ry="4" fill="white" stroke="black" stroke-width="1" />
<text x="280" y="116" font-size="8" text-anchor="middle" fill="black">M</text>
</g>
<g>
<rect x="296" y="96" width="32" height="32" rx="4" ry="4" fill="white" stroke="black" stroke-width="1" />
<text x="312" y="109" font-size="8" text-anchor="middle" fill="black">&lt;</text>
<text x="312" y="122" font-size="8" text-anchor="middle" fill="black">,</text>
</g>
<g>
<rect x="328" y="96" width="32" height="32" rx="4" ry="4" fill="white" stroke="black" stroke-width="1" />
<text x="344" y="109" font-size="8" text-anchor="middle" fill="black">&gt;</text>
<text x="344" y="122" font-size="8" text-anchor="middle" fill="black">.</text>
</g>
<g>
<rect x="360" y="96" width="32" height="32" rx="4" ry="4" fill="white" stroke="black" stroke-width="1" />
<text x="376" y="109" font-size="8" text-anchor="middle" fill="black">?</text>
<text x="376" y="122" font-size="8" text-anchor="middle" fill="black">/</text>
</g>
<g>
<rect x="392" y="96" width="88" height="32" rx="4" ry="4" fill="white" stroke="black" stroke-width="1" />
<text x="436" y="116" font-size="8" text-anchor="middle" fill="black">RShft</text>
</g>
<g>
<rect x="0" y="128" width="40" height="32" rx="4" ry="4" fill="white" stroke="black" stroke-width="1" />
<text x="20" y="148" font-size="8" text-anchor="middle" fill="black">LCTL</text>
</g>
<g>
<rect x="40" y="128" width="40" height="32" rx="4" ry="4" fill="white" stroke="black" stroke-width="1" />
<text x="60" y="148" font-size="8" text-anchor="middle" fill="black">LWin</text>
</g>
<g>
<rect x="80" y="128" width="40" height="32" rx="4" ry="4" fill="white" stroke="black" stroke-width="1" />
<text x="100" y="148" font-size="8" text-anchor="middle" fill="black">LAlt</text>
</g>
<g>
<rect x="120" y="128" width="200" height="32" rx="4" ry="4" fill="white" stroke="black" stroke-width="1" />
<text x="220" y="148" font-size="8" text-anchor="middle" fill="black">Space</text>
</g>
<g>
<rect x="320" y="128" width="40" height="32" rx="4" ry="4" fill="white" stroke="black" stroke-width="1" />
<text x="340" y="148" font-size="8" text-anchor="middle" fill="black">RAlt</text>
</g>
<g>
<rect x="360" y="128" width="40" height="32" rx="4" ry="4" fill="white" stroke="black" stroke-width="1" />
<text x="380" y="148" font-size="8" text-anchor="middle" fill="black">RWin</text>
</g>
<g>
<rect x="400" y="128" width="40" height="32" rx="4" ry="4" fill="white" stroke="black" stroke-width="1" />
<text x="420" y="148" font-size="8" text-anchor="middle" fill="black">MO(1)</text>
</g>
<g>
<rect x="440" y="128" width="40" height="32" rx="4" ry="4" fill="white" stroke="black" stroke-width="1" />
<text x="460" y="148" font-size="8" text-anchor="middle" fill="black">RCtl</text>
</g>
</g></svg>